# xmcd
#
# Track frame offsets:
#	150
#	11878
#	21685
#	33989
#	47196
#	59320
#	73779
#	85589
#	96641
#	114734
#	133037
#
# Disc length: 1944 seconds
# Revision: 0
# Processed by: cddbd v1.5.2PL0 Copyright (c) Steve Scherf et al.
# Submitted via: dBpowerAMP V12.0
#
DISCID=a107960b
DTITLE=Various Artist - Suite Steel: The Pedal Steel Guitar Album
DYEAR=1970
DGENRE=Country
TTITLE0=Buddy Emmons - Down on the Corner
TTITLE1=Sneaky Pete - Blackbird
TTITLE2=Rusty Young - Everybody's Talkin'
TTITLE3=Buddy Emmons - Wichita Lineman
TTITLE4=J.D. Maness - Muddy Mississippi Line
TTITLE5=Red Rhodes - Something
TTITLE6=Rusty Young and Sneaky Pete - Sunshine of Your Love
TTITLE7=Buddy Emmons and Sneaky Pete - Yesterday
TTITLE8=Buddy Emmons - Suite Steel: Turn Any Corner
TTITLE9=Buddy Emmons - Suite Steel: L'Hiver Sur la Plage
TTITLE10=Rusty Young - Suite Steel: Prodigal
EXTD=
EXTT0=
EXTT1=
EXTT2=
EXTT3=
EXTT4=
EXTT5=
EXTT6=
EXTT7=
EXTT8=
EXTT9=
EXTT10=
PLAYORDER=
